<svg id="Layer_1" data-name="Layer 1" xmlns="http://www.w3.org/2000/svg" xmlns:xlink="http://www.w3.org/1999/xlink" viewBox="0 0 140.69 83.72"><defs><style>.cls-1,.cls-2,.cls-3,.cls-4{fill:#2c308b;}.cls-1{opacity:0.81;}.cls-2{opacity:0.86;}.cls-3{opacity:0.76;}.cls-4{opacity:0.36;}.cls-5{fill:url(#linear-gradient);}</style><linearGradient id="linear-gradient" x1="28.38" y1="10.46" x2="15.72" y2="21.06" gradientUnits="userSpaceOnUse"><stop offset="0" stop-color="#f0e89f"/><stop offset="1" stop-color="#d99d3d"/></linearGradient></defs><g id="Card"><g id="Card_Back" data-name="Card Back"><path class="cls-1" d="M135.31,0l-9.25,0L112.33,83.72h23a5.38,5.38,0,0,0,5.38-5.38v-73A5.38,5.38,0,0,0,135.31,0Z"/><path class="cls-2" d="M10.88,0h0L5.38,0A5.38,5.38,0,0,0,0,5.38v73a5.38,5.38,0,0,0,5.38,5.38H58.12L77.58,55,114.72.09Z"/><polygon class="cls-3" points="114.72 0.09 77.58 55.01 58.12 83.72 112.33 83.72 126.06 0.04 114.72 0.09"/><path class="cls-4" d="M77.58,55,10.88,0,5.38,0A5.38,5.38,0,0,0,0,5.38v73a5.38,5.38,0,0,0,5.38,5.38h107Z"/></g><path id="Chip" class="cls-5" d="M19.19,21.39H16.66a1.33,1.33,0,0,1-1-.45c-.44-.43-.29-1.06-.33-1.61,0-.08,0-.11.11-.11h2.79a.5.5,0,0,0,.36-.14c.45-.4.92-.76,1.36-1.17a.26.26,0,0,1,.21-.08h1.58c.08,0,.11,0,.11.1v3.34c0,.09,0,.11-.1.11Zm0-11.17H16.76a1.43,1.43,0,0,0-1.22.61c-.3.42-.16,1-.19,1.46,0,.07,0,.1.09.1h2.91c.22,0,.36.26.53.38l.54.47c.24.16.52.56.81.55h1.45c.17,0,.17,0,.18-.18,0-1.08,0-2.16,0-3.25,0-.12,0-.12-.12-.12Zm8.06,11.17a1.39,1.39,0,0,0,1-.39c.5-.42.37-1.09.39-1.68,0-.08,0-.1-.09-.1-1,0-1.92,0-2.88,0-.19,0-.31-.21-.46-.31-.35-.31-.71-.59-1.06-.89a.61.61,0,0,0-.44-.19c-.46,0-.92,0-1.38,0-.18,0-.15.05-.15.19v3.22c0,.14,0,.14.14.14h4.93ZM24.87,10.22H22.31c-.07,0-.12,0-.12.11s0,.49,0,.73v2.58c0,.13,0,.13.13.13h1.45a.44.44,0,0,0,.34-.14c.31-.27.64-.53,1-.8s.39-.43.65-.46c.94,0,1.88,0,2.82,0,.09,0,.11,0,.11-.11A3.71,3.71,0,0,0,28.54,11a1.38,1.38,0,0,0-1.23-.79H24.87ZM22,14.11H20.26c-.07,0-.09,0-.09.09,0,1.07,0,2.14,0,3.22,0,.07,0,.09.09.09H23.7c.13,0,.14,0,.14-.14,0-1.05,0-2.1,0-3.15,0-.08,0-.1-.1-.1ZM17.6,16H15.5c-.18,0-.15,0-.15.14v2.67c0,.09,0,.11.11.11h2.77c.2,0,.45-.32.62-.43.3-.26.6-.53.9-.78a.25.25,0,0,0,.09-.19c0-.47,0-.93,0-1.4,0-.12,0-.12-.11-.12Zm0-.33h2.18c.05,0,.09,0,.09-.09,0-.49,0-1,0-1.48,0-.18-.31-.3-.43-.43-.31-.27-.6-.54-.91-.79-.07-.06-.13-.14-.24-.14H15.43c-.06,0-.08,0-.08.08v2.74c0,.09,0,.11.11.11Zm8.84.33H24.29c-.12,0-.12,0-.12.12,0,.47,0,.93,0,1.4,0,.2.3.31.43.45l.93.79a.52.52,0,0,0,.36.16h2.71s.06,0,.06-.06V16.09c0-.11,0-.12-.13-.11H26.41Zm0-.34h2.15c.07,0,.09,0,.09-.09,0-.9,0-1.81,0-2.71,0-.08,0-.11-.11-.1H25.79c-.11,0-.17.09-.25.16q-.48.38-.93.78c-.11.12-.41.27-.44.42v1.47c0,.07,0,.08.09.08Z"/></g></svg>