<svg id="Layer_1" data-name="Layer 1" xmlns="http://www.w3.org/2000/svg" viewBox="0 0 430.85 209.14"><defs><style>.cls-1{fill:#ff8300;}</style></defs><path class="cls-1" d="M103.89,164.17,0,209l127.68-68.67V116.58s-32.5,16.25-59.77,31.33A83.31,83.31,0,0,1,56.3,137.47L1.18,158.94,128.26,89.31V66.68s-59.77,31.91-87,45.84C40.06,109,37.15,98,37.15,98L.6,108.46,128.84,39.4v-22L37.73,65.52l.11-.36a82.61,82.61,0,1,1,66.41,98.91Z"/><path d="M230.3,17.26H251v5.51H237.32v8.62h12.47v5.52H237.32v9.82h13.73v5.52H230.3Z"/><path d="M252.7,16.66h6.72V52.25H252.7Z"/><path d="M268.24,36.81c.3-3.46,2.21-6.07,6-6.07s5.26,2.81,5.46,6.07Zm15.94,8.52a17.41,17.41,0,0,1-8.57,2.6c-4.16,0-7.07-2.35-7.37-6.51h17.85c0-9-2.71-15.59-12.28-15.59-8,0-12,6.17-12,13.63,0,8.47,5,13.39,13.49,13.39a17.64,17.64,0,0,0,8.87-2.06Z"/><path d="M306.09,32a10.18,10.18,0,0,0-4.56-1c-4.16,0-6.82,3.31-6.82,8.17s2.25,8.43,7,8.43a14.25,14.25,0,0,0,5.17-1.21l.3,5.57a21.91,21.91,0,0,1-6.71.85c-8.48,0-12.74-5.77-12.74-13.64,0-7.47,4.41-13.38,12.48-13.38a22,22,0,0,1,6.52.85Z"/><path d="M312.8,31.34h-5V26.43h5V21.27l6.72-2.16v7.32h6v4.91h-6v12c0,2.21.6,4.27,3.16,4.27a6,6,0,0,0,3.06-.71l.2,5.32a17.75,17.75,0,0,1-5,.6c-5.27,0-8.18-3.26-8.18-8.37Z"/><path d="M328.24,26.43h6V32.3h.1c.3-2.41,3.06-6.47,7.07-6.47a7.35,7.35,0,0,1,2.05.2v6.76a7,7,0,0,0-3-.54c-5.46,0-5.46,6.81-5.46,10.52v9.48h-6.72Z"/><path d="M344.73,26.17h6.72V52.36h-6.72Zm0-9.45h6.72v6.41h-6.72Z"/><path d="M372.25,32a10.12,10.12,0,0,0-4.56-1c-4.16,0-6.81,3.31-6.81,8.17s2.25,8.43,7,8.43A14.3,14.3,0,0,0,373,46.43l.3,5.57a22,22,0,0,1-6.72.85c-8.47,0-12.74-5.77-12.74-13.64,0-7.47,4.42-13.38,12.49-13.38a21.88,21.88,0,0,1,6.51.85Z"/><path d="M380.52,44.78c0-4,4.46-4.47,7.47-4.47h2.91a8.58,8.58,0,0,1-1.4,5.32,5.73,5.73,0,0,1-4.72,2.3C382.38,47.93,380.52,47,380.52,44.78Zm-3.41-11.23a13.5,13.5,0,0,1,8-2.81c4,0,5.82,1.41,5.82,5.57h-3.71c-2.81,0-6.12.25-8.67,1.5a7.58,7.58,0,0,0-4.41,7.37c0,4.91,4.46,7.67,9,7.67a9.25,9.25,0,0,0,8-4.46h.1a31.52,31.52,0,0,0,.3,3.86h5.92c-.16-2-.25-3.81-.31-5.77S397,42.62,397,40V36.71c0-7.62-3.26-10.88-11.12-10.88a23.19,23.19,0,0,0-9,2Z"/><path d="M399.77,16.66h6.72V52.25h-6.72Z"/><path d="M249.09,71.8A18,18,0,0,0,242,70.29c-2.41,0-5.52,1-5.52,4.86,0,6.07,15.34,3.51,15.34,15.24,0,7.67-6.06,10.58-13.13,10.58a31,31,0,0,1-9-1.35l.66-6.32a16.9,16.9,0,0,0,7.92,2.15c2.65,0,6.21-1.35,6.21-4.51,0-6.66-15.34-3.91-15.34-15.48,0-7.82,6.07-10.68,12.23-10.68A26.53,26.53,0,0,1,249.75,66Z"/><path d="M259.32,92.9c0-4,4.46-4.46,7.47-4.46h2.9a8.57,8.57,0,0,1-1.4,5.31,5.72,5.72,0,0,1-4.71,2.31C261.18,96.06,259.32,95.1,259.32,92.9Zm-3.41-11.23a13.54,13.54,0,0,1,8-2.81c4,0,5.81,1.41,5.81,5.57H266c-2.8,0-6.11.25-8.67,1.5a7.59,7.59,0,0,0-4.41,7.37c0,4.91,4.46,7.67,9,7.67a9.23,9.23,0,0,0,8-4.46H270a31.66,31.66,0,0,0,.3,3.86h5.91c-.15-2-.25-3.81-.3-5.77s-.1-3.86-.1-6.46V84.83c0-7.62-3.26-10.88-11.13-10.88a23,23,0,0,0-9,2Z"/><path d="M281.88,79.47h-5V74.55h5V70.94c0-5.16,2.9-8.77,8.22-8.77a23.74,23.74,0,0,1,4.91.55l-.56,5.57a5.16,5.16,0,0,0-2.9-.91c-2.26,0-2.95,2-2.95,4v3.21h5.85v4.92H288.6v20.9h-6.72Z"/><path d="M300.67,84.93c.3-3.46,2.21-6.07,6-6.07s5.26,2.81,5.46,6.07Zm15.95,8.52A17.49,17.49,0,0,1,308,96.06c-4.16,0-7.07-2.36-7.37-6.52h17.85c0-9-2.71-15.59-12.28-15.59-8,0-12,6.17-12,13.63,0,8.48,5,13.39,13.48,13.39a17.81,17.81,0,0,0,8.88-2Z"/><path d="M323,79.47h-5V74.55h5V69.39l6.71-2.16v7.32h6v4.92h-6v12c0,2.21.61,4.27,3.16,4.27a5.92,5.92,0,0,0,3.06-.71l.2,5.32a17.66,17.66,0,0,1-5,.6c-5.26,0-8.17-3.26-8.17-8.37Z"/><path d="M350,93.4h.1l6.21-18.85h6.82l-9.68,25.62c-2.15,5.71-3.7,11.33-10.72,11.33a17.09,17.09,0,0,1-4.76-.71l.45-5a9.9,9.9,0,0,0,3.46.45c2.7,0,4.36-1.85,4.36-4.61l-9.88-27.12h7.42Z"/><path d="M249.24,135H239l5.06-14.44h.1Zm-22.56,13.53H234l3.06-8H251.2l3,8H262l-13.74-35h-7.92Z"/><path d="M285.58,148.49h-6.36V145h-.1a10.76,10.76,0,0,1-8.47,4.11c-6.12,0-8.77-4.31-8.77-10.13V122.67h6.71v13.79c0,3.16.05,7.42,4.36,7.42,4.86,0,5.91-5.27,5.91-8.57V122.67h6.72Z"/><path d="M291.7,127.59h-5v-4.92h5v-5.16l6.72-2.16v7.32h6v4.92h-6v12c0,2.2.6,4.26,3.15,4.26a5.89,5.89,0,0,0,3.06-.71l.2,5.32a17.7,17.7,0,0,1-5,.6c-5.26,0-8.17-3.26-8.17-8.37Z"/><path d="M306,110.89h6.71v15.29h.1a9.63,9.63,0,0,1,8.12-4.11c6.12,0,8.77,4.31,8.77,10.13v16.29H323V134.7c0-3.15,0-7.41-4.35-7.41-4.86,0-5.92,5.26-5.92,8.57v12.63H306Z"/><path d="M339,135c0-3.86,2.11-7.67,6.46-7.67S352,131,352,135c0,4.31-1.35,8.92-6.52,8.92S339,139.22,339,135Zm-7,.8c0,7.41,5,13.33,13.48,13.33S359,143.17,359,135.76c0-8.53-5.87-13.69-13.54-13.69S332,127.23,332,135.76Z"/><path d="M361.37,122.67h6v5.87h.1c.3-2.41,3.06-6.47,7.07-6.47a7.31,7.31,0,0,1,2.05.2V129a6.84,6.84,0,0,0-3-.55c-5.46,0-5.46,6.82-5.46,10.52v9.48h-6.72Z"/><path d="M377.87,122.67h6.71v25.82h-6.71Zm0-11.12h6.71V118h-6.71Z"/><path d="M390.85,127.59h-5v-4.92h5v-5.16l6.71-2.16v7.32h6v4.92h-6v12c0,2.2.61,4.26,3.16,4.26a5.89,5.89,0,0,0,3.06-.71l.2,5.32a17.7,17.7,0,0,1-5,.6c-5.27,0-8.17-3.26-8.17-8.37Z"/><path d="M417.87,141.52h.1l6.21-18.85H431l-9.67,25.62c-2.16,5.71-3.72,11.33-10.73,11.33a17.08,17.08,0,0,1-4.76-.7l.45-5a9.83,9.83,0,0,0,3.45.46c2.71,0,4.37-1.86,4.37-4.62l-9.88-27.12h7.42Z"/></svg>