<?xml version="1.0" encoding="utf-8"?>
<!-- Generator: Adobe Illustrator 25.4.1, SVG Export Plug-In . SVG Version: 6.00 Build 0)  -->
<svg version="1.1" id="Layer_1" xmlns="http://www.w3.org/2000/svg" xmlns:xlink="http://www.w3.org/1999/xlink" x="0px" y="0px"
	 viewBox="0 0 1642 1056" style="enable-background:new 0 0 1642 1056;" xml:space="preserve">
<style type="text/css">
	.st0{fill:#0CB3FE;}
</style>
<g>
	<path class="st0" d="M521.3,1056c-126.9,0-252.2,0-383.6,0C366.1,621,707.3,119.3,1235.6,60.6c356.2,4.4,495.2,285.9,348.9,597.3
		c-79,186.1-249.6,295.2-429.1,370.1c-8.5,4.1-18.9,4.1-30.4,1.6c188.6-160.8,312.7-409.2,317.2-657.8
		c1.9-122.9-77.6-230-213.1-213.2C792.8,204.4,586.4,673.6,521.3,1056z"/>
	<path class="st0" d="M0,1002C51.3,646.9,219.1,320.5,445.3,45.4c20-23.9,40.8-38.1,74-40.1C648.7-2.8,773.8-5.8,901.1,28.4
		C498.3,265.2,233,607,0,1002z"/>
	<path class="st0" d="M1343.4,324.7c-55.4,137.5-134.4,272.6-273,327.2c-84.6,24.7-126.6-40.2-114.7-105.2
		c24.3-120,118.2-193.8,192.4-288.1c-56.9,14.9-112.1,21.9-160.1,62.5c-104.6,88.6-216.9,184.4-254.1,323.3
		c-36.2,179.3,126.5,195,254,136.9c7.1-2.1,14.3-3.9,28-7.6C964.3,907.2,870,995.2,752.5,1056h158.8c79.6-18,145.1-81.7,201.9-137.8
		c129.6-141.5,223.6-314.3,269-498.4C1370.6,389.1,1357.6,359.1,1343.4,324.7z"/>
</g>
</svg>
