<?xml version="1.0" standalone="no"?>
<!DOCTYPE svg PUBLIC "-//W3C//DTD SVG 20010904//EN"
 "http://www.w3.org/TR/2001/REC-SVG-20010904/DTD/svg10.dtd">
<svg version="1.0" xmlns="http://www.w3.org/2000/svg"
 width="1642.000000pt" height="1642.000000pt" viewBox="0 0 1642.000000 1642.000000"
 preserveAspectRatio="xMidYMid meet">
<metadata>
Created by potrace 1.14, written by Peter Selinger 2001-2017
</metadata>
<g transform="translate(0.000000,1642.000000) scale(0.100000,-0.100000)"
fill="#000000" stroke="none">
<path d="M6128 13485 c-2 -2 -88 -6 -193 -10 -217 -8 -280 -11 -420 -19 -55
-3 -143 -8 -195 -11 -209 -13 -242 -17 -347 -45 -214 -58 -370 -178 -598 -460
-42 -52 -84 -104 -93 -115 -13 -16 -178 -223 -215 -270 -4 -5 -44 -57 -88
-115 -44 -58 -86 -112 -93 -121 -16 -19 -294 -394 -316 -426 -8 -11 -64 -90
-125 -175 -269 -375 -743 -1093 -870 -1315 -6 -10 -62 -106 -126 -213 -136
-229 -218 -370 -267 -460 -19 -36 -54 -99 -77 -140 -39 -70 -75 -136 -182
-335 -80 -150 -371 -739 -466 -945 -488 -1058 -898 -2220 -1143 -3239 -33
-137 -45 -189 -49 -201 -3 -11 -16 -66 -19 -85 -3 -11 -11 -49 -20 -85 -8 -36
-17 -77 -20 -93 -3 -15 -7 -35 -10 -45 -3 -9 -7 -28 -10 -42 -2 -14 -14 -70
-25 -125 -12 -55 -24 -116 -27 -135 -3 -19 -7 -43 -10 -52 -3 -9 -13 -65 -24
-125 -10 -59 -26 -146 -34 -193 -8 -47 -17 -103 -20 -125 -4 -22 -9 -53 -11
-70 -11 -70 -15 -91 -21 -134 -4 -25 -8 -55 -10 -66 -2 -16 -1 -17 7 -5 10 16
397 658 414 688 6 10 86 139 178 287 93 149 174 279 180 289 7 11 44 70 83
130 39 61 104 163 144 226 367 578 932 1395 1350 1955 74 99 142 190 150 202
23 34 163 217 170 223 4 3 20 23 36 45 34 47 166 218 174 225 3 3 21 25 40 50
40 52 27 35 176 220 124 152 351 427 369 446 5 6 28 32 50 59 22 26 45 53 50
59 6 6 53 61 105 121 52 61 109 126 126 145 17 19 55 62 84 95 29 33 85 95
124 139 39 43 82 90 95 105 29 32 237 254 346 371 106 112 653 659 780 780
161 152 336 315 459 424 38 33 92 82 120 107 115 104 302 263 611 521 26 22
210 169 355 284 178 141 534 406 755 562 110 78 205 146 210 150 6 4 37 25 70
47 33 22 62 42 65 45 3 3 104 70 225 149 121 79 232 152 247 162 45 31 479
299 484 299 3 0 17 8 32 19 15 10 53 34 85 54 l57 34 -87 23 c-49 12 -95 23
-103 25 -8 2 -45 10 -81 19 -37 8 -78 17 -90 20 -13 2 -44 9 -69 15 -25 5 -58
12 -75 15 -240 42 -327 57 -360 61 -22 3 -69 10 -105 15 -128 18 -382 46 -500
54 -115 9 -233 16 -330 22 -98 6 -1077 14 -1082 9z"/>
<path d="M12348 12885 c-2 -2 -30 -6 -63 -10 -131 -15 -204 -24 -225 -30 -8
-2 -37 -6 -65 -10 -27 -3 -63 -8 -80 -11 -16 -3 -41 -7 -55 -9 -34 -4 -165
-28 -220 -40 -14 -3 -36 -7 -50 -10 -14 -3 -36 -7 -50 -10 -14 -3 -34 -7 -45
-9 -25 -5 -335 -76 -355 -81 -8 -3 -35 -9 -60 -15 -280 -67 -779 -232 -1150
-380 -344 -137 -858 -385 -1199 -579 -106 -61 -197 -111 -201 -111 -5 0 -10
-3 -12 -7 -1 -5 -43 -32 -93 -62 -170 -103 -396 -250 -635 -416 -171 -118
-622 -462 -750 -571 -14 -12 -52 -44 -85 -72 -91 -75 -209 -175 -221 -186 -6
-6 -42 -38 -80 -71 -37 -33 -89 -79 -114 -102 -25 -22 -79 -72 -120 -110 -379
-348 -879 -864 -1235 -1273 -26 -30 -62 -71 -79 -90 -129 -140 -549 -659 -794
-980 -95 -124 -176 -229 -180 -235 -4 -5 -68 -93 -143 -195 -337 -461 -723
-1031 -1049 -1550 -57 -91 -113 -181 -126 -200 -42 -66 -187 -303 -240 -395
-6 -11 -57 -96 -113 -190 -166 -274 -532 -918 -703 -1235 -20 -36 -78 -144
-130 -240 -52 -96 -126 -233 -163 -305 -37 -71 -72 -134 -76 -140 -5 -5 -9
-13 -9 -17 0 -4 863 -7 1917 -6 l1917 3 23 130 c22 122 70 375 79 420 3 11 12
54 20 95 9 41 17 84 20 95 3 18 71 321 79 355 59 254 198 777 265 995 10 33
33 107 50 165 116 382 363 1074 464 1302 9 18 54 125 102 238 47 113 103 241
124 285 21 44 48 103 60 130 71 158 343 688 368 718 8 9 11 17 7 17 -4 0 -2 8
6 18 8 9 23 33 33 52 207 385 605 984 905 1360 36 46 205 249 236 284 544 621
1073 1074 1700 1458 61 37 142 84 180 104 39 20 77 42 85 48 20 16 319 163
435 214 191 84 427 174 580 222 184 57 372 110 445 125 8 2 56 12 105 24 50
11 104 23 120 26 66 12 202 36 230 41 17 2 41 6 55 9 35 6 88 13 263 35 167
21 503 21 607 1 30 -6 66 -12 80 -15 182 -30 420 -127 600 -243 300 -195 553
-509 698 -868 51 -127 100 -277 117 -364 16 -74 46 -250 52 -304 16 -125 8
-702 -12 -852 -2 -16 -6 -64 -9 -105 -3 -41 -11 -111 -16 -155 -6 -44 -13 -98
-16 -120 -2 -22 -7 -58 -10 -80 -3 -22 -9 -65 -14 -95 -15 -87 -19 -112 -26
-155 -3 -22 -21 -116 -40 -210 -20 -93 -37 -181 -40 -195 -30 -153 -181 -707
-205 -752 -5 -10 -8 -18 -5 -18 2 0 -5 -24 -15 -52 -11 -29 -22 -60 -24 -68
-1 -8 -13 -42 -25 -75 -12 -33 -32 -89 -44 -125 -31 -86 -123 -324 -147 -377
-10 -24 -19 -45 -19 -48 0 -2 -11 -28 -24 -57 -13 -29 -36 -80 -51 -113 -14
-33 -41 -91 -58 -130 -63 -141 -276 -554 -371 -719 -291 -505 -605 -956 -968
-1386 -34 -41 -65 -77 -68 -80 -3 -3 -36 -41 -75 -85 -214 -243 -573 -601
-795 -792 -14 -12 -38 -33 -55 -47 -20 -17 -25 -26 -15 -27 8 0 26 -2 40 -4
39 -6 142 -6 175 0 35 7 68 19 153 57 34 15 65 28 68 28 4 0 40 16 81 35 41
19 77 35 79 35 2 0 36 15 76 34 40 18 120 55 178 82 269 122 746 372 992 520
50 30 94 54 98 54 5 0 10 3 12 8 2 4 32 25 68 46 71 43 366 238 437 289 173
125 480 363 513 397 3 3 37 32 75 65 168 143 446 419 601 595 128 147 294 356
387 490 233 335 372 587 574 1038 151 340 281 685 337 893 8 30 26 98 41 152
14 54 28 106 30 115 2 9 10 46 19 82 15 63 20 90 31 148 3 15 10 50 15 77 16
86 30 179 45 300 3 28 8 64 10 80 13 102 19 259 19 465 1 248 -5 354 -30 540
-12 97 -15 116 -20 140 -10 57 -13 69 -18 102 -12 74 -86 348 -124 458 -57
164 -96 257 -168 403 -154 311 -333 565 -577 816 -515 529 -1213 882 -2087
1056 -8 1 -49 8 -90 15 -41 6 -86 14 -100 16 -147 26 -380 48 -610 59 -74 3
-159 7 -187 9 -29 2 -54 2 -55 1z"/>
<path d="M11325 10864 c-71 -18 -144 -35 -161 -38 -27 -5 -219 -53 -354 -90
-192 -52 -402 -130 -545 -204 -79 -41 -201 -112 -230 -135 -5 -4 -32 -24 -60
-44 -44 -33 -212 -169 -225 -183 -3 -3 -68 -59 -145 -125 -77 -66 -142 -122
-145 -125 -3 -3 -41 -36 -85 -74 -373 -321 -795 -735 -1041 -1022 -128 -150
-149 -176 -279 -349 -262 -349 -478 -737 -606 -1086 -60 -164 -115 -347 -123
-414 -3 -22 -8 -51 -11 -65 -15 -70 -20 -164 -19 -350 0 -227 14 -318 73 -478
149 -410 509 -650 1046 -699 136 -12 363 -6 492 13 39 5 217 34 243 39 178 34
504 141 715 235 29 13 286 83 290 78 10 -11 -220 -507 -301 -648 -15 -25 -44
-76 -67 -115 -35 -62 -212 -329 -270 -410 -215 -297 -507 -606 -842 -891 -133
-113 -588 -444 -611 -444 -3 0 -24 -13 -47 -29 -23 -16 -58 -38 -77 -49 -19
-11 -75 -43 -125 -72 -49 -29 -128 -73 -175 -98 -47 -25 -89 -49 -95 -53 -5
-5 342 -9 779 -9 750 0 791 1 864 20 304 77 649 252 977 494 101 75 304 238
344 277 9 8 49 44 90 80 40 35 90 80 110 99 397 378 478 462 737 765 40 47
208 255 327 405 15 18 249 337 294 400 122 170 453 681 453 700 0 4 3 10 8 12
4 2 17 21 30 43 12 22 51 89 85 148 199 347 407 758 565 1117 233 530 464
1198 586 1695 l28 111 -82 204 c-45 113 -88 219 -95 235 -7 17 -34 82 -60 145
-26 63 -53 129 -60 145 -7 17 -28 66 -46 110 -19 44 -38 82 -44 83 -5 2 -20
-22 -34 -55 -51 -124 -144 -340 -166 -388 -480 -1046 -950 -1713 -1575 -2236
-300 -251 -769 -520 -1015 -583 -106 -27 -118 -28 -266 -32 -131 -3 -156 -1
-240 22 -98 26 -210 77 -263 120 -17 14 -41 33 -54 42 -12 9 -50 51 -84 92
-88 107 -163 277 -183 415 -4 22 -8 51 -11 65 -3 21 -4 100 -3 225 0 17 15
107 33 195 19 95 83 297 136 430 97 244 225 475 427 770 23 34 215 286 250
329 140 171 439 515 573 661 8 9 42 47 75 85 54 63 103 119 130 149 6 6 35 40
65 76 30 36 57 67 60 70 16 14 180 219 180 224 0 8 2 9 -145 -30z"/>
</g>
</svg>
