<svg id="Layer_1" data-name="Layer 1" xmlns="http://www.w3.org/2000/svg" viewBox="0 0 468 207"><defs><style>.cls-1{fill:#003764;}.cls-2{fill:#ea0029;}.cls-3{fill:none;stroke:#003764;stroke-miterlimit:10;stroke-width:6px;}</style></defs><path d="M127.17,5.84H113.72v5.79h12.35V16.5H113.72v7.13h14v4.86H108.53V1h18.64Z"/><path d="M136.76,28.49h-4.94V1h4.94Z"/><path d="M145.09,16.27c.28-2.68,1.52-4.29,3.85-4.29,1.59,0,3.53,1,3.81,4.29Zm7.45,6.25a3.18,3.18,0,0,1-3.18,2.22c-4,0-4.27-3.45-4.41-5h12.88v-1c0-9.31-5.12-11.23-8.82-11.23-8.22,0-9,7.86-9,10.31,0,8.39,4.06,11.15,9.35,11.15a8.21,8.21,0,0,0,8.26-6.51Z"/><path d="M177.27,21.06c-.17,2.11-1.69,8-8.57,8-7.06,0-8.68-5.86-8.68-10.15,0-6.6,2.64-11.31,9-11.31,3,0,7.83,1.46,8.29,7.82h-5c-.21-1.34-1-3.45-3.28-3.3-3.11,0-3.92,3.37-3.92,5.9,0,2.23.07,6.63,3.81,6.63,2.51,0,3.35-2.6,3.35-3.56Z"/><path d="M186.27,8.11h3.07v3.83h-3.07V23c0,1.19,0,1.65,2,1.65.32,0,.67,0,1-.07v4.06c-.77,0-1.55.07-2.33.07h-.63c-4.27,0-5-1.76-5-4.4V11.94h-2.54V8.11h2.54V2.59h4.94Z"/><path d="M192.45,8.11h4.73v3.52h.07c1-2.07,2.15-4.06,5.15-4.06a7.61,7.61,0,0,1,.95.08v5.44a8.11,8.11,0,0,0-1.41-.08c-3.85,0-4.55,2.61-4.55,4.87V28.49h-4.94Z"/><path d="M211.29,8.11V28.49h-4.94V8.11Zm0-2.42h-4.94v-5h4.94Z"/><path d="M232.18,21.06c-.18,2.11-1.69,8-8.58,8-7,0-8.68-5.86-8.68-10.15,0-6.6,2.65-11.31,9-11.31,3,0,7.84,1.46,8.3,7.82h-5c-.21-1.34-1-3.45-3.28-3.3-3.1,0-3.91,3.37-3.91,5.9,0,2.23.07,6.63,3.81,6.63,2.5,0,3.35-2.6,3.35-3.56Z"/><path d="M246,21.17a4.2,4.2,0,0,1-4.41,4,2.24,2.24,0,0,1-2.29-2.45c0-2.23,1.51-2.72,3.35-3.07,2.05-.34,2.86-.69,3.35-1.11Zm4.84-7.7c0-5-4.84-5.9-7.48-5.9-3.85,0-7.84.88-8.4,7.13h4.76c.14-1.19.57-2.84,3-2.84,1.27,0,3.24.12,3.24,2.38,0,1.15-.95,1.49-1.73,1.61l-4.44.73c-3.14.49-5.47,2.53-5.47,6.51,0,4.22,2.89,5.94,5.72,5.94a7.41,7.41,0,0,0,6.06-3,9.83,9.83,0,0,0,.46,2.41h5.33v-.8c-.6-.23-1.09-.77-1.09-3.18Z"/><path d="M260.34,28.49H255.4V1h4.94Z"/><path d="M291.43,10c-.43-1.64-1.24-4.75-5.61-4.75-2.54,0-6.28,1.84-6.28,9.62,0,5,1.79,9.39,6.28,9.39,2.92,0,5-1.8,5.61-5.17h5.29c-1.06,6-4.66,10.15-11,10.15-6.74,0-11.57-4.94-11.57-14.45S279.25.25,285.78.25c7.59,0,10.66,5.67,10.94,9.73Z"/><path d="M313.37,18.3c0,2.61-.7,6.21-4.51,6.21s-4.52-3.6-4.52-6.21.71-6.21,4.52-6.21S313.37,15.69,313.37,18.3Zm5.09,0c0-7.36-4.56-10.73-9.6-10.73s-9.6,3.37-9.6,10.73S303.81,29,308.86,29,318.46,25.66,318.46,18.3Z"/><path d="M338.89,28.49H334V16.12c0-1.5-.07-4-3.21-4-2.19,0-3.89,1.61-3.89,4.72V28.49h-4.94V8.11h4.73v3h.07a6,6,0,0,1,5.65-3.53c3.67,0,6.53,2.34,6.53,6.82Z"/><path d="M349,8.11h3.07v3.83H349V23c0,1.19,0,1.65,2.05,1.65.32,0,.67,0,1-.07v4.06c-.77,0-1.55.07-2.33.07h-.63c-4.27,0-5.05-1.76-5.05-4.4V11.94h-2.54V8.11h2.54V2.59H349Z"/><path d="M355.19,8.11h4.73v3.52H360c1-2.07,2.15-4.06,5.15-4.06a7.61,7.61,0,0,1,.95.08v5.44a8.11,8.11,0,0,0-1.41-.08c-3.85,0-4.55,2.61-4.55,4.87V28.49h-4.94Z"/><path d="M379.32,21.17a4.2,4.2,0,0,1-4.41,4,2.24,2.24,0,0,1-2.29-2.45c0-2.23,1.52-2.72,3.35-3.07,2-.34,2.86-.69,3.35-1.11Zm4.84-7.7c0-5-4.84-5.9-7.48-5.9-3.85,0-7.83.88-8.4,7.13H373c.14-1.19.57-2.84,3-2.84,1.27,0,3.24.12,3.24,2.38,0,1.15-.95,1.49-1.72,1.61l-4.45.73c-3.14.49-5.47,2.53-5.47,6.51,0,4.22,2.89,5.94,5.72,5.94a7.45,7.45,0,0,0,6.07-3,9,9,0,0,0,.46,2.41h5.32v-.8c-.6-.23-1.09-.77-1.09-3.18Z"/><path d="M404.73,21.06c-.17,2.11-1.69,8-8.57,8-7.06,0-8.68-5.86-8.68-10.15,0-6.6,2.64-11.31,9-11.31,3,0,7.84,1.46,8.3,7.82h-5c-.22-1.34-1-3.45-3.29-3.3-3.1,0-3.91,3.37-3.91,5.9,0,2.23.07,6.63,3.81,6.63,2.5,0,3.35-2.6,3.35-3.56Z"/><path d="M413.73,8.11h3.07v3.83h-3.07V23c0,1.19,0,1.65,2,1.65.31,0,.67,0,1-.07v4.06c-.78,0-1.55.07-2.33.07h-.64c-4.26,0-5-1.76-5-4.4V11.94h-2.54V8.11h2.54V2.59h4.94Z"/><path d="M433,18.3c0,2.61-.71,6.21-4.52,6.21s-4.51-3.6-4.51-6.21.7-6.21,4.51-6.21S433,15.69,433,18.3Zm5.08,0c0-7.36-4.55-10.73-9.6-10.73s-9.59,3.37-9.59,10.73S423.4,29,428.44,29,438,25.66,438,18.3Z"/><path d="M441.47,8.11h4.72v3.52h.07c1-2.07,2.16-4.06,5.16-4.06a7.77,7.77,0,0,1,.95.08v5.44A8.16,8.16,0,0,0,451,13c-3.85,0-4.55,2.61-4.55,4.87V28.49h-4.94Z"/><path d="M133.34,49.16V41.8h6.6c3.11,0,3.71,2.15,3.71,3.6,0,2.72-1.35,3.76-4.1,3.76Zm-5.19,15.4h5.19V53.79h5.47c3.92,0,4.13,1.46,4.13,5.22a19.94,19.94,0,0,0,.56,5.55h5.86v-.73c-1.13-.45-1.13-1.45-1.13-5.47,0-5.14-1.13-6-3.21-7,2.51-.92,3.92-3.53,3.92-6.55,0-2.38-1.24-7.78-8-7.78H128.15Z"/><path d="M156.84,52.34c.28-2.68,1.52-4.29,3.85-4.29,1.59,0,3.53,1,3.81,4.29Zm7.45,6.25a3.18,3.18,0,0,1-3.18,2.22c-4,0-4.27-3.45-4.41-5h12.88v-1c0-9.32-5.12-11.23-8.82-11.23-8.22,0-9,7.86-9,10.31,0,8.39,4.06,11.15,9.35,11.15a8.21,8.21,0,0,0,8.26-6.51Z"/><path d="M177.06,54.48c0-4.75,2.05-6.2,3.88-6.2,2.76,0,4.24,2.68,4.24,6,0,2.8-.85,5.91-4.2,5.91C178.05,60.16,177.06,57.09,177.06,54.48Zm8.29-10.3v3h-.07a5.65,5.65,0,0,0-5.5-3.56c-4.13,0-7.8,3.45-7.8,10.5s3.56,10.54,8.08,10.54a5.06,5.06,0,0,0,5-3.07l.07.08v2.45c0,3.3-1.27,4.68-3.91,4.68-2.86,0-3.25-1-3.46-2.07H172.4c.22,4.33,4.31,6.13,8.19,6.13,9.25,0,9.49-5.86,9.49-9.39V44.18Z"/><path d="M199.5,44.18V64.56h-4.94V44.18Zm0-2.42h-4.94v-5h4.94Z"/><path d="M214.85,50.38c-.21-1.3-.63-2.68-3.31-2.68s-3,1.11-3,2c0,3.22,11.75.89,11.75,8.4,0,5.94-5.29,7-8.22,7-4.27,0-8.89-1.61-9-7h5.08c0,1.72,1,3,4.09,3,2.54,0,3.14-1.34,3.14-2.11,0-3.41-11.64-.84-11.64-8.47,0-3,1.73-6.82,7.58-6.82,3.67,0,8.05,1,8.44,6.74Z"/><path d="M229.39,44.18h3.07V48h-3.07V59.08c0,1.19,0,1.65,2.05,1.65a9.3,9.3,0,0,0,1-.08v4.07c-.77,0-1.55.07-2.33.07h-.63c-4.27,0-5.05-1.76-5.05-4.4V48h-2.54V44.18h2.54V38.66h4.94Z"/><path d="M235.57,44.18h4.73V47.7h.07c1-2.07,2.15-4.06,5.15-4.06a7.61,7.61,0,0,1,.95.08v5.44a8.11,8.11,0,0,0-1.41-.08c-3.85,0-4.55,2.61-4.55,4.87V64.56h-4.94Z"/><path d="M259.7,57.24a4.21,4.21,0,0,1-4.41,4A2.24,2.24,0,0,1,253,58.82c0-2.23,1.52-2.73,3.35-3.07,2-.35,2.86-.69,3.35-1.11Zm4.84-7.7c0-5-4.84-5.9-7.48-5.9-3.85,0-7.84.88-8.4,7.13h4.76c.14-1.19.57-2.84,3-2.84,1.27,0,3.24.12,3.24,2.38,0,1.15-.95,1.49-1.73,1.61l-4.44.72c-3.14.5-5.47,2.53-5.47,6.52,0,4.22,2.89,5.94,5.71,5.94a7.43,7.43,0,0,0,6.07-2.95,9.83,9.83,0,0,0,.46,2.41h5.33v-.8c-.6-.23-1.09-.77-1.09-3.18Z"/><path d="M274.49,44.18h3.07V48h-3.07V59.08c0,1.19,0,1.65,2.05,1.65a9.49,9.49,0,0,0,1-.08v4.07c-.78,0-1.55.07-2.33.07h-.64c-4.27,0-5-1.76-5-4.4V48H267V44.18h2.54V38.66h4.94Z"/><path d="M285.78,44.18V64.56h-4.94V44.18Zm0-2.42h-4.94v-5h4.94Z"/><path d="M303.53,54.37c0,2.61-.71,6.21-4.52,6.21s-4.51-3.6-4.51-6.21.7-6.21,4.51-6.21S303.53,51.76,303.53,54.37Zm5.08,0c0-7.36-4.55-10.73-9.6-10.73s-9.6,3.37-9.6,10.73S294,65.1,299,65.1,308.61,61.73,308.61,54.37Z"/><path d="M329,64.56H324.1V52.18c0-1.49-.07-4-3.21-4-2.19,0-3.88,1.61-3.88,4.71V64.56h-4.94V44.18h4.73v3h.07a6,6,0,0,1,5.64-3.52c3.67,0,6.53,2.34,6.53,6.82Z"/><path d="M353.85,43.26h.07l3.14,10.88H350.6Zm-4.66,15.63h9.35l1.63,5.67h5.75L357,37.05h-6.11l-9,27.51h5.57Z"/><path d="M373.11,54.48c0-4.75,2.05-6.2,3.89-6.2,2.75,0,4.23,2.68,4.23,6,0,2.8-.85,5.91-4.2,5.91C374.1,60.16,373.11,57.09,373.11,54.48Zm8.3-10.3v3h-.07a5.66,5.66,0,0,0-5.51-3.56c-4.13,0-7.8,3.45-7.8,10.5s3.57,10.54,8.08,10.54a5.09,5.09,0,0,0,5-3.07l.07.08v2.45c0,3.3-1.27,4.68-3.92,4.68-2.86,0-3.25-1-3.46-2.07h-5.36c.21,4.33,4.3,6.13,8.18,6.13,9.25,0,9.5-5.86,9.5-9.39V44.18Z"/><path d="M394.42,52.34c.28-2.68,1.52-4.29,3.85-4.29,1.58,0,3.53,1,3.81,4.29Zm7.45,6.25a3.19,3.19,0,0,1-3.18,2.22c-4,0-4.27-3.45-4.41-5h12.88v-1c0-9.32-5.12-11.23-8.82-11.23-8.23,0-9,7.86-9,10.31,0,8.39,4.06,11.15,9.35,11.15A8.21,8.21,0,0,0,407,58.59Z"/><path d="M427.41,64.56h-4.94V52.18c0-1.49-.07-4-3.21-4-2.19,0-3.88,1.61-3.88,4.71V64.56h-4.94V44.18h4.73v3h.07a6,6,0,0,1,5.64-3.52c3.67,0,6.53,2.34,6.53,6.82Z"/><path d="M448.16,57.13c-.18,2.11-1.69,8-8.57,8-7.06,0-8.68-5.86-8.68-10.16,0-6.59,2.64-11.3,9-11.3,3,0,7.84,1.45,8.3,7.82h-5c-.21-1.34-1-3.45-3.28-3.3-3.1,0-3.91,3.37-3.91,5.9,0,2.23.07,6.63,3.81,6.63,2.5,0,3.35-2.6,3.35-3.56Z"/><path d="M461.54,64.22c-2.33,7.55-3,8.55-7.27,8.55-.67,0-1.51,0-2.22-.08V68.4a6.5,6.5,0,0,0,.95.07c1.8,0,2.79-.27,3.25-3.06l-6.92-21.23h5.51l4,15h.07l3.85-15H468Z"/><path class="cls-1" d="M95.83,48.45c11.27-3.38,14.28-1.13,14.28,4.51v9.77c0,4.88-2.2,4.66-4.89,5.63C97,71.37,50,84.89,19.18,112c-10.89,10.89-1.88,12,5.64,9.39,9-3,50.34-21,73.26-26.3,38.33-10.52,58.62,15.4,15,34.57S50.37,154.4,32.33,170.56s-5.26,19.16,7.89,15.4,129.63-44.71,169.83-42.83c3,.75,7.51,7.89-.38,9.39-75.52,15.78-122.48,37.2-157.42,48.1C13.55,213-8.5,179.76,28.58,153.28c10.52-7.52,54.48-30.06,66.12-34.19,20.29-7.14,18.41-12.4-2.25-6.77s-52.23,21-60.12,22.92C16.55,142-15,141.25,7.91,102.93,29,74.37,95.83,48.45,95.83,48.45Z"/><path class="cls-2" d="M181.53,162.89c6-1,15.81-3.62,24.21-5.1,0,18.61,10.69,31.93,28.35,34.56s62.37,3.38,69.51,3.38,17.66-7.14,20.29-10.89c2.26-3.39,3.76,1.5.75,4.88C319,196.11,310.74,207,293.08,207s-63.87.38-73.64-.37c-8.26,0-38.82-8.66-38.06-27.82C181.06,166.76,181.53,162.89,181.53,162.89Z"/><path class="cls-2" d="M181.49,140.88c5.93-1.16,18-1.7,25.56-2.28,0-12.39,10.52-27,28.18-29.68s62.37-3.38,69.51-3.38,17.66,7.14,20.29,10.9c2.25,3.38,3.76-1.51.75-4.89-5.64-6.38-13.9-17.28-31.56-17.28s-63.88-.38-73.64.38c-8.27,0-39.65,9-38.9,28.19C181.68,133.74,181.49,140.88,181.49,140.88Z"/><line class="cls-3" x1="296.84" y1="134.11" x2="344.93" y2="134.11"/><line class="cls-3" x1="296.8" y1="164.3" x2="344.89" y2="164.3"/></svg>